<svg viewBox="0 0 760 500" xmlns="http://www.w3.org/2000/svg" font-family="'Courier New', monospace">

  <rect x="0" y="0" width="760" height="500" fill="#f4f0e4"/>

  <rect x="10" y="10" width="740" height="480" fill="none" stroke="#000000" stroke-width="2"/>
  <rect x="14" y="14" width="732" height="472" fill="none" stroke="#000000" stroke-width="1"/>

  <line x1="30" y1="10" x2="30" y2="6" stroke="#000000" stroke-width="2"/>
  <line x1="60" y1="10" x2="60" y2="6" stroke="#000000" stroke-width="2"/>
  <line x1="90" y1="10" x2="90" y2="6" stroke="#000000" stroke-width="2"/>
  <line x1="120" y1="10" x2="120" y2="6" stroke="#000000" stroke-width="2"/>
  <line x1="150" y1="10" x2="150" y2="6" stroke="#000000" stroke-width="2"/>
  <line x1="180" y1="10" x2="180" y2="6" stroke="#000000" stroke-width="2"/>
  <line x1="210" y1="10" x2="210" y2="6" stroke="#000000" stroke-width="2"/>
  <line x1="240" y1="10" x2="240" y2="6" stroke="#000000" stroke-width="2"/>
  <line x1="270" y1="10" x2="270" y2="6" stroke="#000000" stroke-width="2"/>
  <line x1="300" y1="10" x2="300" y2="6" stroke="#000000" stroke-width="2"/>
  <line x1="330" y1="10" x2="330" y2="6" stroke="#000000" stroke-width="2"/>
  <line x1="360" y1="10" x2="360" y2="6" stroke="#000000" stroke-width="2"/>
  <line x1="390" y1="10" x2="390" y2="6" stroke="#000000" stroke-width="2"/>
  <line x1="420" y1="10" x2="420" y2="6" stroke="#000000" stroke-width="2"/>
  <line x1="450" y1="10" x2="450" y2="6" stroke="#000000" stroke-width="2"/>
  <line x1="480" y1="10" x2="480" y2="6" stroke="#000000" stroke-width="2"/>
  <line x1="510" y1="10" x2="510" y2="6" stroke="#000000" stroke-width="2"/>
  <line x1="540" y1="10" x2="540" y2="6" stroke="#000000" stroke-width="2"/>
  <line x1="570" y1="10" x2="570" y2="6" stroke="#000000" stroke-width="2"/>
  <line x1="600" y1="10" x2="600" y2="6" stroke="#000000" stroke-width="2"/>
  <line x1="630" y1="10" x2="630" y2="6" stroke="#000000" stroke-width="2"/>
  <line x1="660" y1="10" x2="660" y2="6" stroke="#000000" stroke-width="2"/>
  <line x1="690" y1="10" x2="690" y2="6" stroke="#000000" stroke-width="2"/>
  <line x1="720" y1="10" x2="720" y2="6" stroke="#000000" stroke-width="2"/>

  <text x="24" y="30" font-size="11" fill="#000000" letter-spacing="2">DRACO//LAB — TECHNICAL SCHEMATIC</text>
  <text x="736" y="30" text-anchor="end" font-size="11" fill="#000000">A18-N03 / 01</text>

  <text x="380" y="90" text-anchor="middle" font-size="40" font-weight="bold" fill="#ff0000">E = mc&#178;</text>
  <text x="380" y="110" text-anchor="middle" font-size="11" fill="#000000">FIG. 1 — ENERGY/MASS EQUIVALENCE</text>

  <line x1="80" y1="135" x2="680" y2="135" stroke="#000000" stroke-width="1"/>
  <line x1="80" y1="139" x2="680" y2="139" stroke="#000000" stroke-width="1"/>

  <circle cx="380" cy="265" r="85" fill="none" stroke="#000000" stroke-width="2"/>
  <ellipse cx="380" cy="265" rx="130" ry="42" fill="none" stroke="#ff0000" stroke-width="2" transform="rotate(-24 380 265)"/>
  <ellipse cx="380" cy="265" rx="130" ry="42" fill="none" stroke="#000000" stroke-width="2" transform="rotate(24 380 265)"/>
  <ellipse cx="380" cy="265" rx="130" ry="42" fill="none" stroke="#000000" stroke-width="2"/>
  <circle cx="380" cy="265" r="14" fill="#ff0000"/>
  <circle cx="380" cy="265" r="6" fill="#ffffff"/>

  <line x1="380" y1="345" x2="380" y2="370" stroke="#000000" stroke-width="1"/>
  <path d="M376 362 L380 370 L384 362" fill="none" stroke="#000000" stroke-width="1"/>
  <text x="380" y="385" text-anchor="middle" font-size="10" fill="#000000">FIG. 2 — ELECTRON ORBIT / NUCLEUS</text>

  <line x1="80" y1="400" x2="680" y2="400" stroke="#000000" stroke-width="1"/>
  <line x1="80" y1="404" x2="680" y2="404" stroke="#000000" stroke-width="1"/>

  <text x="120" y="435" font-size="16" fill="#ff0000" font-weight="bold">F = ma</text>
  <text x="120" y="452" font-size="16" fill="#000000" font-weight="bold">p = mv</text>
  <text x="330" y="435" font-size="16" fill="#ff0000" font-weight="bold">&#8711;&#183;E = &#961;/&#949;&#8320;</text>
  <text x="330" y="452" font-size="16" fill="#000000" font-weight="bold">&#8706;&#968;/&#8706;t = i&#8463;&#968;</text>
  <text x="545" y="435" font-size="16" fill="#ff0000" font-weight="bold">c = &#955;f</text>
  <text x="545" y="452" font-size="16" fill="#000000" font-weight="bold">V = IR</text>

  <rect x="470" y="330" width="210" height="48" fill="none" stroke="#ff0000" stroke-width="2"/>
  <text x="485" y="350" font-size="13" fill="#ff0000" font-weight="bold">STAMP: DRACO//LAB</text>
  <text x="485" y="366" font-size="11" fill="#ff0000">APPROVED — PERSONAL AI SYSTEM</text>

  <rect x="50" y="420" width="120" height="42" rx="3" fill="#ffffff" stroke="#000000" stroke-width="2"/>
  <g fill="#000000">
    <rect x="58" y="428" width="2" height="26"/>
    <rect x="63" y="428" width="4" height="26"/>
    <rect x="70" y="428" width="3" height="26"/>
    <rect x="76" y="428" width="2" height="26"/>
    <rect x="81" y="428" width="5" height="26"/>
    <rect x="89" y="428" width="2" height="26"/>
    <rect x="94" y="428" width="3" height="26"/>
    <rect x="100" y="428" width="4" height="26"/>
    <rect x="107" y="428" width="2" height="26"/>
    <rect x="112" y="428" width="6" height="26"/>
    <rect x="121" y="428" width="3" height="26"/>
    <rect x="127" y="428" width="4" height="26"/>
    <rect x="134" y="428" width="2" height="26"/>
    <rect x="139" y="428" width="3" height="26"/>
    <rect x="145" y="428" width="5" height="26"/>
    <rect x="153" y="428" width="2" height="26"/>
    <rect x="158" y="428" width="4" height="26"/>
  </g>

  <text x="380" y="468" text-anchor="middle" font-size="13" fill="#000000" font-weight="bold">A. MHATRE — AI DEVELOPER // PHYSICS ENTHUSIAST</text>
  <text x="380" y="486" text-anchor="middle" font-size="10" fill="#000000">CURRENTLY: BUILDING DRACOR1 — A PERSONAL AI THAT SPEAKS MARATHI</text>

</svg>